<svg xmlns="http://www.w3.org/2000/svg" viewBox="0 0 503 503"><path fill="#00BEC1" d="M245.25 1.28c43.46-1.22 87.11 9.46 125.34 30.09 49.95 27.03 90.36 71.48 112.14 123.98 16.29 38.76 22.43 81.69 17.82 123.47-4.36 39.86-18.45 78.63-40.84 111.9-15.47 22.97-34.75 43.39-56.74 60.23-30.88 23.49-67.3 39.65-105.44 46.82-44.16 8.26-90.55 4.4-132.66-11.33-49.05-17.98-91.9-52.01-121.08-95.29-22.24-33.09-36.55-71.53-41.02-111.18-4.8-42.69 1.36-86.62 18.37-126.12C45.47 96.06 92.51 48.31 149.82 22.9c29.96-13.44 62.6-20.79 95.43-21.62"/><g transform="matrix(1.47794 0 0 1.6924 97.794 143.186)"><rect width="198" height="118" x="5" y="5" fill="none" stroke="#ffffff" stroke-width="10" ry="10"/><path fill="#ffffff" d="M30 98V30h20l20 25 20-25h20v68H90V59L70 84 50 59v39zm125 0l-30-33h20V30h20v35h20z"/></g></svg>